<svg width="30" height="30" viewBox="0 0 30 30" fill="none" xmlns="http://www.w3.org/2000/svg">
<path d="M9.05 2.5H6.675C3.9375 2.5 2.5 3.9375 2.5 6.6625V9.0375C2.5 11.7625 3.9375 13.2 6.6625 13.2H9.0375C11.7625 13.2 13.2 11.7625 13.2 9.0375V6.6625C13.2125 3.9375 11.775 2.5 9.05 2.5Z" fill="white"/>
<path d="M23.3373 2.5H20.9623C18.2373 2.5 16.7998 3.9375 16.7998 6.6625V9.0375C16.7998 11.7625 18.2373 13.2 20.9623 13.2H23.3373C26.0623 13.2 27.4998 11.7625 27.4998 9.0375V6.6625C27.4998 3.9375 26.0623 2.5 23.3373 2.5Z" fill="white"/>
<path d="M23.3373 16.7875H20.9623C18.2373 16.7875 16.7998 18.225 16.7998 20.95V23.325C16.7998 26.05 18.2373 27.4875 20.9623 27.4875H23.3373C26.0623 27.4875 27.4998 26.05 27.4998 23.325V20.95C27.4998 18.225 26.0623 16.7875 23.3373 16.7875Z" fill="white"/>
<path d="M9.05 16.7875H6.675C3.9375 16.7875 2.5 18.225 2.5 20.95V23.325C2.5 26.0625 3.9375 27.5 6.6625 27.5H9.0375C11.7625 27.5 13.2 26.0625 13.2 23.3375V20.9625C13.2125 18.225 11.775 16.7875 9.05 16.7875Z" fill="white"/>
</svg>
