<svg width="30" height="30" viewBox="0 0 30 30" fill="none" xmlns="http://www.w3.org/2000/svg">
<path d="M16.9545 22.5631H13.4521C11.1637 22.5631 9.3079 20.6375 9.3079 18.2654C9.3079 17.6933 9.78232 17.2189 10.3544 17.2189C10.9265 17.2189 11.4009 17.6933 11.4009 18.2654C11.4009 19.4794 12.3219 20.4701 13.4521 20.4701H16.9545C17.8614 20.4701 18.6149 19.6608 18.6149 18.684C18.6149 17.4701 18.1824 17.2329 17.4707 16.9817L11.8474 15.0003C10.7591 14.6236 9.29395 13.8143 9.29395 11.3166C9.29395 9.16773 10.9823 7.4375 13.0475 7.4375H16.5498C18.8382 7.4375 20.694 9.36308 20.694 11.7352C20.694 12.3073 20.2196 12.7817 19.6475 12.7817C19.0754 12.7817 18.601 12.3073 18.601 11.7352C18.601 10.5212 17.6801 9.53052 16.5498 9.53052H13.0475C12.1405 9.53052 11.387 10.3398 11.387 11.3166C11.387 12.5306 11.8195 12.7678 12.5312 13.0189L18.1545 15.0003C19.2428 15.3771 20.708 16.1864 20.708 18.684C20.694 20.8189 19.0196 22.5631 16.9545 22.5631Z" fill="#7F879E"/>
<path d="M15.0043 24.4185C14.4322 24.4185 13.9578 23.9441 13.9578 23.372V6.62781C13.9578 6.05572 14.4322 5.5813 15.0043 5.5813C15.5764 5.5813 16.0508 6.05572 16.0508 6.62781V23.372C16.0508 23.9441 15.5764 24.4185 15.0043 24.4185Z" fill="#7F879E"/>
<path d="M19.186 30H10.814C3.23721 30 0 26.7628 0 19.186V10.814C0 3.23721 3.23721 0 10.814 0H19.186C26.7628 0 30 3.23721 30 10.814V19.186C30 26.7628 26.7628 30 19.186 30ZM10.814 2.09302C4.38139 2.09302 2.09302 4.38139 2.09302 10.814V19.186C2.09302 25.6186 4.38139 27.907 10.814 27.907H19.186C25.6186 27.907 27.907 25.6186 27.907 19.186V10.814C27.907 4.38139 25.6186 2.09302 19.186 2.09302H10.814Z" fill="#7F879E"/>
</svg>
