<svg width="30" height="28" viewBox="0 0 30 28" fill="none" xmlns="http://www.w3.org/2000/svg">
<path d="M27.5 11.4445V14.8778C27.5 19.4556 25 21.7445 20 21.7445H19.375C18.9875 21.7445 18.6125 21.9162 18.375 22.2023L16.5 24.4912C15.675 25.4983 14.325 25.4983 13.5 24.4912L11.625 22.2023C11.425 21.9505 10.9625 21.7445 10.625 21.7445H10C5 21.7445 2.5 20.6001 2.5 14.8778V9.15562C2.5 4.57783 5 2.28894 10 2.28894H17.5" stroke="#7F879E" stroke-width="1.5" stroke-miterlimit="10" stroke-linecap="round" stroke-linejoin="round"/>
<path d="M24.375 8.01117C26.1009 8.01117 27.5 6.7302 27.5 5.15005C27.5 3.5699 26.1009 2.28894 24.375 2.28894C22.6491 2.28894 21.25 3.5699 21.25 5.15005C21.25 6.7302 22.6491 8.01117 24.375 8.01117Z" stroke="#7F879E" stroke-width="1.5" stroke-linecap="round" stroke-linejoin="round"/>
<path d="M19.9956 12.5889H20.0068" stroke="#7F879E" stroke-width="2" stroke-linecap="round" stroke-linejoin="round"/>
<path d="M14.9941 12.5889H15.0053" stroke="#7F879E" stroke-width="2" stroke-linecap="round" stroke-linejoin="round"/>
<path d="M9.99313 12.5889H10.0044" stroke="#7F879E" stroke-width="2" stroke-linecap="round" stroke-linejoin="round"/>
</svg>
