<svg width="38" height="23" viewBox="0 0 38 23" fill="none" xmlns="http://www.w3.org/2000/svg">
<path d="M16.1619 0.0357733L13.1278 3.08247C12.2194 3.33289 11.3763 3.79198 10.6638 4.42398L9.08438 5.83702C8.47875 6.37959 7.68906 6.6777 6.87563 6.6777H5.7V14.3094C6.91125 14.3451 8.06313 14.84 8.92406 15.7045L11.0378 17.8271L11.4534 18.2444L13.0566 19.8542C13.4247 20.2239 14.0303 20.2239 14.3984 19.8542C14.4994 19.7529 14.5766 19.6336 14.6181 19.5084C14.7844 19.0493 15.1703 18.7035 15.6453 18.5962C16.1203 18.4889 16.6191 18.632 16.9634 18.9837L17.6047 19.6157C18.2934 20.3074 19.4097 20.3074 20.0925 19.6157C20.4131 19.2938 20.5853 18.8824 20.6031 18.4591C20.6269 17.9344 20.9356 17.4693 21.4106 17.2428C21.8856 17.0162 22.4378 17.0639 22.8594 17.368C23.4175 17.7674 24.1953 17.7138 24.6941 17.213C25.2522 16.6525 25.2522 15.7463 24.6941 15.1918L20.1934 10.6724L18.0678 12.6399C16.4469 14.1424 13.9591 14.1663 12.3084 12.6936C10.4263 11.0122 10.3847 8.07882 12.2134 6.34381L16.3756 2.39682C18.0025 0.858561 20.1519 0 22.3903 0C24.5338 0 26.6059 0.792977 28.2031 2.21795L29.9903 3.81583H37.05C37.5725 3.81583 38 4.24511 38 4.76979V17.1712C38 18.2265 37.1509 19.0791 36.1 19.0791H34.2C33.4994 19.0791 32.8819 18.6976 32.5553 18.1252H27.5144C27.3125 18.5247 27.0453 18.9062 26.7128 19.2401C25.6975 20.2597 24.2903 20.6591 22.9722 20.4385C22.7584 20.8738 22.4675 21.2792 22.1053 21.6429C20.4844 23.2706 17.9491 23.4316 16.1441 22.1258C14.6537 23.366 12.4331 23.2885 11.0378 21.8814L9.44063 20.2716L9.025 19.8542L6.91125 17.7317C6.58469 17.4038 6.15719 17.213 5.7 17.1772C5.7 18.2265 4.845 19.0791 3.8 19.0791H1.9C0.849063 19.0791 0 18.2265 0 17.1712V4.76979C0 4.24511 0.4275 3.81583 0.95 3.81583H6.87563C6.99438 3.81583 7.10719 3.77409 7.19031 3.69658L8.76375 2.2895C10.4203 0.816826 12.5519 0 14.7666 0H15.3781C15.6394 0 15.9066 0.0119244 16.1619 0.0357733ZM32.3 15.2633V6.6777H29.45C29.0997 6.6777 28.7613 6.54653 28.5059 6.314L26.315 4.35839C25.2344 3.39251 23.8391 2.86187 22.3903 2.86187C20.8822 2.86187 19.4334 3.44021 18.335 4.47764L14.1728 8.42463C13.5613 9.00893 13.5731 9.9927 14.2025 10.5531C14.7547 11.048 15.5919 11.0361 16.1322 10.5353L20.4013 6.57634C20.9772 6.03974 21.8797 6.07551 22.4141 6.65981C22.9484 7.24411 22.9128 8.14441 22.3309 8.68101L22.2834 8.72871L26.7009 13.1646C27.2947 13.7608 27.6806 14.4942 27.8528 15.2574H32.3V15.2633ZM3.8 16.2173C3.8 15.9643 3.69991 15.7216 3.52175 15.5427C3.34359 15.3638 3.10196 15.2633 2.85 15.2633C2.59804 15.2633 2.35641 15.3638 2.17825 15.5427C2.00009 15.7216 1.9 15.9643 1.9 16.2173C1.9 16.4703 2.00009 16.7129 2.17825 16.8918C2.35641 17.0707 2.59804 17.1712 2.85 17.1712C3.10196 17.1712 3.34359 17.0707 3.52175 16.8918C3.69991 16.7129 3.8 16.4703 3.8 16.2173ZM35.15 17.1712C35.402 17.1712 35.6436 17.0707 35.8218 16.8918C35.9999 16.7129 36.1 16.4703 36.1 16.2173C36.1 15.9643 35.9999 15.7216 35.8218 15.5427C35.6436 15.3638 35.402 15.2633 35.15 15.2633C34.898 15.2633 34.6564 15.3638 34.4782 15.5427C34.3001 15.7216 34.2 15.9643 34.2 16.2173C34.2 16.4703 34.3001 16.7129 34.4782 16.8918C34.6564 17.0707 34.898 17.1712 35.15 17.1712Z" fill="#3860E2"/>
</svg>
