<svg width="33" height="30" viewBox="0 0 33 30" fill="none" xmlns="http://www.w3.org/2000/svg">
<path d="M23.2098 23.0376H17.7487L11.6731 26.7375C10.772 27.2875 9.55691 26.7001 9.55691 25.7001V23.0376C5.46105 23.0376 2.73047 20.5376 2.73047 16.7876V9.28748C2.73047 5.53748 5.46105 3.03748 9.55691 3.03748H23.2098C27.3057 3.03748 30.0363 5.53748 30.0363 9.28748V16.7876C30.0363 20.5376 27.3057 23.0376 23.2098 23.0376Z" stroke="#3860E2" stroke-width="1.5" stroke-miterlimit="10" stroke-linecap="round" stroke-linejoin="round"/>
<path d="M16.3835 14.2V13.9375C16.3835 13.0875 16.957 12.6375 17.5304 12.275C18.0902 11.925 18.6499 11.475 18.6499 10.65C18.6499 9.49999 17.6396 8.57495 16.3835 8.57495C15.1275 8.57495 14.1172 9.49999 14.1172 10.65" stroke="#3860E2" stroke-width="1.5" stroke-linecap="round" stroke-linejoin="round"/>
<path d="M16.3772 17.1875H16.3895" stroke="#3860E2" stroke-width="1.5" stroke-linecap="round" stroke-linejoin="round"/>
</svg>
