<svg width="26" height="26" viewBox="0 0 26 26" fill="none" xmlns="http://www.w3.org/2000/svg">
<path d="M8.775 6.5C8.51641 6.5 8.26842 6.60272 8.08557 6.78557C7.90272 6.96842 7.8 7.21641 7.8 7.475C7.8 7.73359 7.90272 7.98158 8.08557 8.16443C8.26842 8.34728 8.51641 8.45 8.775 8.45H18.525C18.7836 8.45 19.0316 8.34728 19.2144 8.16443C19.3973 7.98158 19.5 7.73359 19.5 7.475C19.5 7.21641 19.3973 6.96842 19.2144 6.78557C19.0316 6.60272 18.7836 6.5 18.525 6.5H8.775ZM6.5 12.675C6.5 12.4164 6.60272 12.1684 6.78557 11.9856C6.96842 11.8027 7.21641 11.7 7.475 11.7H15.925C16.1836 11.7 16.4316 11.8027 16.6144 11.9856C16.7973 12.1684 16.9 12.4164 16.9 12.675C16.9 12.9336 16.7973 13.1816 16.6144 13.3644C16.4316 13.5473 16.1836 13.65 15.925 13.65H7.475C7.21641 13.65 6.96842 13.5473 6.78557 13.3644C6.60272 13.1816 6.5 12.9336 6.5 12.675ZM10.075 16.9C9.81641 16.9 9.56842 17.0027 9.38557 17.1856C9.20272 17.3684 9.1 17.6164 9.1 17.875C9.1 18.1336 9.20272 18.3816 9.38557 18.5644C9.56842 18.7473 9.81641 18.85 10.075 18.85H18.525C18.7836 18.85 19.0316 18.7473 19.2144 18.5644C19.3973 18.3816 19.5 18.1336 19.5 17.875C19.5 17.6164 19.3973 17.3684 19.2144 17.1856C19.0316 17.0027 18.7836 16.9 18.525 16.9H10.075Z" fill="#3860E2"/>
<path d="M0 2.275C0 1.0192 1.0192 0 2.275 0H23.725C24.9808 0 26 1.0192 26 2.275V23.725C26 24.3284 25.7603 24.907 25.3337 25.3337C24.907 25.7603 24.3284 26 23.725 26H2.275C1.67163 26 1.09298 25.7603 0.666332 25.3337C0.239687 24.907 0 24.3284 0 23.725V2.275ZM2.275 1.95C2.1888 1.95 2.10614 1.98424 2.04519 2.04519C1.98424 2.10614 1.95 2.1888 1.95 2.275V23.725C1.95 23.9044 2.0956 24.05 2.275 24.05H23.725C23.8112 24.05 23.8939 24.0158 23.9548 23.9548C24.0158 23.8939 24.05 23.8112 24.05 23.725V2.275C24.05 2.1888 24.0158 2.10614 23.9548 2.04519C23.8939 1.98424 23.8112 1.95 23.725 1.95H2.275Z" fill="#3860E2"/>
</svg>
