<svg width="89" height="41" viewBox="0 0 89 41" fill="none" xmlns="http://www.w3.org/2000/svg">
<rect width="80" height="18" rx="6.84" fill="#4167E4"/>
<path d="M24.2942 12.1495V7.92582H24.9098V8.56422L24.8357 8.41602C24.9497 8.24122 25.1017 8.10442 25.2917 8.00562C25.4817 7.90682 25.6983 7.85742 25.9415 7.85742C26.2341 7.85742 26.4963 7.92772 26.7281 8.06832C26.9637 8.20892 27.148 8.40082 27.281 8.64402C27.4178 8.88722 27.4862 9.16082 27.4862 9.46482C27.4862 9.76882 27.4178 10.0424 27.281 10.2856C27.148 10.5288 26.9656 10.7226 26.7338 10.867C26.502 11.0076 26.2379 11.0779 25.9415 11.0779C25.7021 11.0779 25.4836 11.0285 25.286 10.9297C25.0922 10.8309 24.9421 10.6884 24.8357 10.5022L24.9383 10.3825V12.1495H24.2942ZM25.8788 10.4794C26.0612 10.4794 26.2227 10.4357 26.3633 10.3483C26.5039 10.2609 26.6141 10.1412 26.6939 9.98922C26.7775 9.83342 26.8193 9.65862 26.8193 9.46482C26.8193 9.27102 26.7775 9.09812 26.6939 8.94612C26.6141 8.79412 26.5039 8.67442 26.3633 8.58702C26.2227 8.49962 26.0612 8.45592 25.8788 8.45592C25.7002 8.45592 25.5387 8.49962 25.3943 8.58702C25.2537 8.67442 25.1416 8.79412 25.058 8.94612C24.9782 9.09812 24.9383 9.27102 24.9383 9.46482C24.9383 9.65862 24.9782 9.83342 25.058 9.98922C25.1416 10.1412 25.2537 10.2609 25.3943 10.3483C25.5387 10.4357 25.7002 10.4794 25.8788 10.4794ZM28.1127 11.0095V7.92582H28.7283V8.54712L28.6713 8.45592C28.7397 8.25452 28.8499 8.11012 29.0019 8.02272C29.1539 7.93152 29.3363 7.88592 29.5491 7.88592H29.7372V8.47302H29.4693C29.2565 8.47302 29.0836 8.53952 28.9506 8.67252C28.8214 8.80172 28.7568 8.98792 28.7568 9.23112V11.0095H28.1127ZM31.6656 11.0779C31.3692 11.0779 31.0975 11.0076 30.8505 10.867C30.6073 10.7264 30.4135 10.5345 30.2691 10.2913C30.1247 10.0481 30.0525 9.77262 30.0525 9.46482C30.0525 9.15322 30.1247 8.87772 30.2691 8.63832C30.4135 8.39512 30.6073 8.20512 30.8505 8.06832C31.0937 7.92772 31.3654 7.85742 31.6656 7.85742C31.9696 7.85742 32.2413 7.92772 32.4807 8.06832C32.7239 8.20512 32.9158 8.39512 33.0564 8.63832C33.2008 8.87772 33.273 9.15322 33.273 9.46482C33.273 9.77642 33.2008 10.0538 33.0564 10.297C32.912 10.5402 32.7182 10.7321 32.475 10.8727C32.2318 11.0095 31.962 11.0779 31.6656 11.0779ZM31.6656 10.4794C31.848 10.4794 32.0095 10.4357 32.1501 10.3483C32.2907 10.2609 32.4009 10.1412 32.4807 9.98922C32.5643 9.83342 32.6061 9.65862 32.6061 9.46482C32.6061 9.27102 32.5643 9.09812 32.4807 8.94612C32.4009 8.79412 32.2907 8.67442 32.1501 8.58702C32.0095 8.49962 31.848 8.45592 31.6656 8.45592C31.487 8.45592 31.3255 8.49962 31.1811 8.58702C31.0405 8.67442 30.9284 8.79412 30.8448 8.94612C30.765 9.09812 30.7251 9.27102 30.7251 9.46482C30.7251 9.65862 30.765 9.83342 30.8448 9.98922C30.9284 10.1412 31.0405 10.2609 31.1811 10.3483C31.3255 10.4357 31.487 10.4794 31.6656 10.4794ZM34.166 11.0095V8.50722H33.596V7.92582H34.166V7.76622C34.166 7.53442 34.2135 7.34062 34.3085 7.18482C34.4035 7.02522 34.5346 6.90362 34.7018 6.82002C34.8728 6.73642 35.0685 6.69462 35.2889 6.69462C35.3307 6.69462 35.3782 6.69842 35.4314 6.70602C35.4846 6.70982 35.5283 6.71552 35.5625 6.72312V7.28172C35.5321 7.27412 35.4979 7.27032 35.4599 7.27032C35.4219 7.26652 35.3915 7.26462 35.3687 7.26462C35.1977 7.26462 35.0609 7.30452 34.9583 7.38432C34.8557 7.46032 34.8044 7.58762 34.8044 7.76622V7.92582H36.2807V8.50722H34.8044V11.0095H34.166ZM35.9786 11.0095V7.92582H36.617V11.0095H35.9786ZM37.2973 11.0095V6.69462H37.9414V11.0095H37.2973ZM40.1423 11.0779C39.8345 11.0779 39.5609 11.0076 39.3215 10.867C39.0859 10.7226 38.9016 10.5288 38.7686 10.2856C38.6356 10.0386 38.5691 9.76312 38.5691 9.45912C38.5691 9.14752 38.6356 8.87202 38.7686 8.63262C38.9054 8.39322 39.0878 8.20512 39.3158 8.06832C39.5438 7.92772 39.8022 7.85742 40.091 7.85742C40.3228 7.85742 40.5299 7.89732 40.7123 7.97712C40.8947 8.05692 41.0486 8.16712 41.174 8.30772C41.2994 8.44452 41.3944 8.60222 41.459 8.78082C41.5274 8.95942 41.5616 9.14942 41.5616 9.35082C41.5616 9.40022 41.5597 9.45152 41.5559 9.50472C41.5521 9.55792 41.5445 9.60732 41.5331 9.65292H39.0764V9.13992H41.1683L40.8605 9.37362C40.8985 9.18742 40.8852 9.02212 40.8206 8.87772C40.7598 8.72952 40.6648 8.61362 40.5356 8.53002C40.4102 8.44262 40.262 8.39892 40.091 8.39892C39.92 8.39892 39.768 8.44262 39.635 8.53002C39.502 8.61362 39.3994 8.73522 39.3272 8.89482C39.255 9.05062 39.2265 9.24062 39.2417 9.46482C39.2227 9.67382 39.2512 9.85622 39.3272 10.012C39.407 10.1678 39.5172 10.2894 39.6578 10.3768C39.8022 10.4642 39.9656 10.5079 40.148 10.5079C40.3342 10.5079 40.4919 10.4661 40.6211 10.3825C40.7541 10.2989 40.8586 10.1906 40.9346 10.0576L41.459 10.3141C41.3982 10.4585 41.3032 10.5896 41.174 10.7074C41.0486 10.8214 40.8966 10.9126 40.718 10.981C40.5432 11.0456 40.3513 11.0779 40.1423 11.0779ZM44.0814 11.0095L42.873 7.92582H43.5741L44.5032 10.4395H44.2467L45.1758 7.92582H45.8826L44.6685 11.0095H44.0814ZM46.3204 11.0095V7.92582H46.9645V11.0095H46.3204ZM46.3204 7.50402V6.76302H46.9645V7.50402H46.3204ZM49.1654 11.0779C48.8576 11.0779 48.584 11.0076 48.3446 10.867C48.109 10.7226 47.9247 10.5288 47.7917 10.2856C47.6587 10.0386 47.5922 9.76312 47.5922 9.45912C47.5922 9.14752 47.6587 8.87202 47.7917 8.63262C47.9285 8.39322 48.1109 8.20512 48.3389 8.06832C48.5669 7.92772 48.8253 7.85742 49.1141 7.85742C49.3459 7.85742 49.553 7.89732 49.7354 7.97712C49.9178 8.05692 50.0717 8.16712 50.1971 8.30772C50.3225 8.44452 50.4175 8.60222 50.4821 8.78082C50.5505 8.95942 50.5847 9.14942 50.5847 9.35082C50.5847 9.40022 50.5828 9.45152 50.579 9.50472C50.5752 9.55792 50.5676 9.60732 50.5562 9.65292H48.0995V9.13992H50.1914L49.8836 9.37362C49.9216 9.18742 49.9083 9.02212 49.8437 8.87772C49.7829 8.72952 49.6879 8.61362 49.5587 8.53002C49.4333 8.44262 49.2851 8.39892 49.1141 8.39892C48.9431 8.39892 48.7911 8.44262 48.6581 8.53002C48.5251 8.61362 48.4225 8.73522 48.3503 8.89482C48.2781 9.05062 48.2496 9.24062 48.2648 9.46482C48.2458 9.67382 48.2743 9.85622 48.3503 10.012C48.4301 10.1678 48.5403 10.2894 48.6809 10.3768C48.8253 10.4642 48.9887 10.5079 49.1711 10.5079C49.3573 10.5079 49.515 10.4661 49.6442 10.3825C49.7772 10.2989 49.8817 10.1906 49.9577 10.0576L50.4821 10.3141C50.4213 10.4585 50.3263 10.5896 50.1971 10.7074C50.0717 10.8214 49.9197 10.9126 49.7411 10.981C49.5663 11.0456 49.3744 11.0779 49.1654 11.0779ZM51.96 11.0095L50.8998 7.92582H51.5838L52.3932 10.3825H52.1538L52.9803 7.92582H53.5674L54.3882 10.3825H54.1488L54.9639 7.92582H55.6479L54.582 11.0095H54.0006L53.1684 8.49582H53.3793L52.5471 11.0095H51.96ZM57.2295 11.0779C56.9141 11.0779 56.6367 11 56.3973 10.8442C56.1617 10.6884 55.9964 10.4794 55.9014 10.2172L56.3973 9.98352C56.4809 10.1583 56.5949 10.297 56.7393 10.3996C56.8875 10.5022 57.0509 10.5535 57.2295 10.5535C57.3815 10.5535 57.505 10.5193 57.6 10.4509C57.695 10.3825 57.7425 10.2894 57.7425 10.1716C57.7425 10.0956 57.7216 10.0348 57.6798 9.98922C57.638 9.93982 57.5848 9.89992 57.5202 9.86952C57.4594 9.83912 57.3967 9.81632 57.3321 9.80112L56.8476 9.66432C56.5816 9.58832 56.3821 9.47432 56.2491 9.32232C56.1199 9.16652 56.0553 8.98602 56.0553 8.78082C56.0553 8.59462 56.1028 8.43312 56.1978 8.29632C56.2928 8.15572 56.4239 8.04742 56.5911 7.97142C56.7583 7.89542 56.9464 7.85742 57.1554 7.85742C57.4366 7.85742 57.6874 7.92772 57.9078 8.06832C58.1282 8.20512 58.284 8.39702 58.3752 8.64402L57.8793 8.87772C57.8185 8.72952 57.7216 8.61172 57.5886 8.52432C57.4594 8.43692 57.3131 8.39322 57.1497 8.39322C57.0091 8.39322 56.897 8.42742 56.8134 8.49582C56.7298 8.56042 56.688 8.64592 56.688 8.75232C56.688 8.82452 56.707 8.88532 56.745 8.93472C56.783 8.98032 56.8324 9.01832 56.8932 9.04872C56.954 9.07532 57.0167 9.09812 57.0813 9.11712L57.5829 9.26532C57.8375 9.33752 58.0332 9.45152 58.17 9.60732C58.3068 9.75932 58.3752 9.94172 58.3752 10.1545C58.3752 10.3369 58.3258 10.4984 58.227 10.639C58.132 10.7758 57.999 10.8841 57.828 10.9639C57.657 11.0399 57.4575 11.0779 57.2295 11.0779Z" fill="white"/>
<path d="M10.8419 14.2505C8.01326 14.2505 5.71191 11.9491 5.71191 9.12048C5.71191 6.29183 8.01326 3.99048 10.8419 3.99048C13.6706 3.99048 15.9719 6.29183 15.9719 9.12048C15.9719 11.9491 13.6706 14.2505 10.8419 14.2505ZM10.8419 4.77971C8.44956 4.77971 6.50114 6.72812 6.50114 9.12048C6.50114 11.5128 8.44956 13.4612 10.8419 13.4612C13.2343 13.4612 15.1827 11.5141 15.1827 9.12048C15.1827 6.72689 13.2355 4.77971 10.8419 4.77971Z" fill="white"/>
<path d="M12.4034 9.87813C11.9651 9.87813 11.5418 9.68996 11.2111 9.34846C10.884 9.00509 10.6884 8.56357 10.657 8.09754C10.62 7.59297 10.7799 7.12863 11.1073 6.79055C11.4347 6.45247 11.8923 6.27063 12.4034 6.27063C12.9106 6.27063 13.3697 6.45637 13.6961 6.79372C14.0225 7.13107 14.1865 7.59809 14.1495 8.09802C14.1175 8.56378 13.922 9.00496 13.5954 9.34846C13.2645 9.68996 12.8413 9.87813 12.4034 9.87813ZM8.37745 9.96003C7.62793 9.96003 6.96882 9.28947 6.90838 8.46511C6.8774 8.04294 7.0129 7.65269 7.29044 7.36629C7.56799 7.07988 7.95081 6.92754 8.3772 6.92754C8.80359 6.92754 9.18616 7.08451 9.46194 7.3697C9.73772 7.65489 9.8775 8.04781 9.84602 8.46657C9.78457 9.28972 9.12571 9.96003 8.37745 9.96003ZM14.8388 11.4206C14.7988 11.306 14.7013 11.1839 14.5059 11.0681C13.915 10.7188 13.1881 10.5341 12.4034 10.5341C11.6334 10.5341 10.8864 10.7266 10.2996 11.0764C9.63849 11.4706 9.19422 12.0453 9.01515 12.7383C8.97284 12.9014 8.91113 13.2048 8.97712 13.3747C10.036 13.7644 11.2027 13.7823 12.2738 13.4253C13.345 13.0682 14.2527 12.3588 14.8391 11.4206H14.8388ZM8.37267 12.544C8.55073 11.8564 8.92977 11.2831 9.51785 10.8195C9.54566 10.7973 9.5668 10.7683 9.57907 10.7355C9.59135 10.7027 9.59431 10.6673 9.58765 10.633C9.58098 10.5987 9.56494 10.5668 9.54119 10.5406C9.51744 10.5143 9.48686 10.4948 9.45262 10.4839C9.1504 10.3905 8.80535 10.3405 8.37745 10.3405C7.77753 10.3405 7.14059 10.4977 6.66131 10.7834C6.5253 10.8646 6.39182 10.8958 6.28906 10.9236C6.70162 11.806 7.38579 12.5436 8.248 13.0354L8.29308 13.032C8.30294 12.8672 8.3296 12.7038 8.37267 12.544Z" fill="white"/>
<rect y="23" width="80" height="18" rx="6.86793" fill="#404667"/>
<path d="M18.5224 34.0687C18.2057 34.0687 17.9272 33.9905 17.6868 33.834C17.4502 33.6776 17.2843 33.4677 17.1889 33.2045L17.6868 32.9698C17.7707 33.1453 17.8852 33.2846 18.0302 33.3876C18.179 33.4906 18.3431 33.5421 18.5224 33.5421C18.675 33.5421 18.799 33.5078 18.8944 33.4391C18.9898 33.3704 19.0375 33.277 19.0375 33.1587C19.0375 33.0824 19.0165 33.0213 18.9745 32.9755C18.9326 32.9259 18.8791 32.8859 18.8143 32.8553C18.7532 32.8248 18.6903 32.8019 18.6254 32.7867L18.1389 32.6493C17.8718 32.573 17.6715 32.4585 17.538 32.3059C17.4083 32.1495 17.3434 31.9682 17.3434 31.7622C17.3434 31.5752 17.3911 31.4131 17.4865 31.2757C17.5819 31.1345 17.7135 31.0258 17.8814 30.9495C18.0493 30.8732 18.2381 30.835 18.448 30.835C18.7303 30.835 18.9822 30.9056 19.2035 31.0468C19.4248 31.1842 19.5812 31.3768 19.6728 31.6248L19.1748 31.8595C19.1138 31.7107 19.0165 31.5924 18.883 31.5047C18.7532 31.4169 18.6063 31.373 18.4423 31.373C18.3011 31.373 18.1885 31.4074 18.1046 31.476C18.0207 31.5409 17.9787 31.6267 17.9787 31.7336C17.9787 31.8061 17.9978 31.8671 18.0359 31.9167C18.0741 31.9625 18.1237 32.0007 18.1847 32.0312C18.2458 32.0579 18.3087 32.0808 18.3736 32.0999L18.8772 32.2487C19.1329 32.3212 19.3294 32.4356 19.4667 32.5921C19.6041 32.7447 19.6728 32.9278 19.6728 33.1415C19.6728 33.3247 19.6232 33.4868 19.524 33.628C19.4286 33.7653 19.295 33.8741 19.1233 33.9542C18.9516 34.0305 18.7513 34.0687 18.5224 34.0687ZM21.7602 34.0687C21.4511 34.0687 21.1764 33.9981 20.936 33.8569C20.6994 33.7119 20.5144 33.5173 20.3808 33.2731C20.2473 33.0251 20.1805 32.7485 20.1805 32.4433C20.1805 32.1304 20.2473 31.8538 20.3808 31.6134C20.5182 31.373 20.7013 31.1842 20.9303 31.0468C21.1592 30.9056 21.4187 30.835 21.7086 30.835C21.9414 30.835 22.1493 30.8751 22.3325 30.9552C22.5156 31.0353 22.6702 31.146 22.7961 31.2872C22.922 31.4245 23.0174 31.5829 23.0822 31.7622C23.1509 31.9415 23.1852 32.1323 23.1852 32.3345C23.1852 32.3841 23.1833 32.4356 23.1795 32.4891C23.1757 32.5425 23.1681 32.5921 23.1566 32.6379H20.6899V32.1228H22.7903L22.4813 32.3574C22.5194 32.1705 22.5061 32.0045 22.4412 31.8595C22.3802 31.7107 22.2848 31.5943 22.1551 31.5104C22.0291 31.4226 21.8803 31.3787 21.7086 31.3787C21.5369 31.3787 21.3843 31.4226 21.2508 31.5104C21.1172 31.5943 21.0142 31.7164 20.9417 31.8767C20.8692 32.0331 20.8406 32.2239 20.8559 32.449C20.8368 32.6588 20.8654 32.842 20.9417 32.9984C21.0219 33.1549 21.1325 33.277 21.2737 33.3647C21.4187 33.4525 21.5827 33.4964 21.7659 33.4964C21.9528 33.4964 22.1112 33.4544 22.2409 33.3704C22.3745 33.2865 22.4794 33.1778 22.5557 33.0442L23.0822 33.3018C23.0212 33.4468 22.9258 33.5784 22.7961 33.6967C22.6702 33.8111 22.5175 33.9027 22.3382 33.9714C22.1627 34.0362 21.97 34.0687 21.7602 34.0687ZM24.7156 34.0687C24.5058 34.0687 24.3207 34.0324 24.1605 33.9599C24.004 33.8836 23.882 33.7806 23.7942 33.6509C23.7064 33.5173 23.6626 33.3609 23.6626 33.1816C23.6626 33.0137 23.6988 32.863 23.7713 32.7294C23.8476 32.5959 23.964 32.4833 24.1204 32.3918C24.2769 32.3002 24.4734 32.2353 24.7099 32.1972L25.7859 32.0197V32.5291L24.8358 32.6951C24.6641 32.7256 24.5382 32.7809 24.4581 32.8611C24.378 32.9374 24.3379 33.0366 24.3379 33.1587C24.3379 33.277 24.3818 33.3743 24.4695 33.4506C24.5611 33.5231 24.6775 33.5593 24.8187 33.5593C24.9942 33.5593 25.1468 33.5212 25.2765 33.4448C25.4101 33.3685 25.5131 33.2674 25.5856 33.1415C25.6581 33.0118 25.6943 32.8687 25.6943 32.7123V31.9167C25.6943 31.7641 25.6371 31.6401 25.5226 31.5447C25.412 31.4455 25.2632 31.3959 25.0762 31.3959C24.9045 31.3959 24.7538 31.4417 24.6241 31.5333C24.4982 31.621 24.4047 31.7355 24.3436 31.8767L23.8056 31.6077C23.8629 31.4551 23.9564 31.3215 24.0861 31.207C24.2158 31.0888 24.3665 30.9972 24.5382 30.9323C24.7137 30.8675 24.8988 30.835 25.0934 30.835C25.3376 30.835 25.5531 30.8808 25.7401 30.9724C25.9309 31.064 26.0778 31.1918 26.1808 31.3558C26.2876 31.5161 26.3411 31.7031 26.3411 31.9167V34H25.7229V33.4391L25.8546 33.4563C25.7821 33.5822 25.6886 33.6909 25.5741 33.7825C25.4635 33.8741 25.3357 33.9447 25.1907 33.9943C25.0495 34.0439 24.8912 34.0687 24.7156 34.0687ZM27.0972 34V30.9037H27.7154V31.5275L27.6581 31.436C27.7268 31.2338 27.8374 31.0888 27.9901 31.001C28.1427 30.9094 28.3258 30.8636 28.5395 30.8636H28.7284V31.4531H28.4594C28.2457 31.4531 28.0721 31.5199 27.9386 31.6535C27.8088 31.7832 27.744 31.9701 27.744 32.2143V34H27.0972ZM30.6417 34.0687C30.3326 34.0687 30.0579 33.9981 29.8175 33.8569C29.581 33.7119 29.3921 33.5173 29.2509 33.2731C29.1136 33.029 29.0449 32.7523 29.0449 32.4433C29.0449 32.138 29.1136 31.8633 29.2509 31.6191C29.3883 31.3749 29.5772 31.1842 29.8175 31.0468C30.0579 30.9056 30.3326 30.835 30.6417 30.835C30.8515 30.835 31.048 30.8732 31.2312 30.9495C31.4143 31.022 31.5727 31.1231 31.7062 31.2528C31.8436 31.3826 31.9447 31.5333 32.0095 31.705L31.4429 31.9682C31.3781 31.808 31.2732 31.6802 31.1282 31.5848C30.987 31.4856 30.8248 31.436 30.6417 31.436C30.4662 31.436 30.3078 31.4799 30.1667 31.5676C30.0293 31.6516 29.9206 31.7717 29.8404 31.9282C29.7603 32.0808 29.7202 32.2544 29.7202 32.449C29.7202 32.6436 29.7603 32.8191 29.8404 32.9755C29.9206 33.1282 30.0293 33.2483 30.1667 33.3361C30.3078 33.4239 30.4662 33.4677 30.6417 33.4677C30.8286 33.4677 30.9908 33.42 31.1282 33.3247C31.2693 33.2255 31.3743 33.0938 31.4429 32.9297L32.0095 33.1987C31.9485 33.3628 31.8493 33.5116 31.7119 33.6452C31.5784 33.7749 31.4201 33.8779 31.2369 33.9542C31.0538 34.0305 30.8554 34.0687 30.6417 34.0687ZM32.6417 34V29.6675H33.2884V31.5104L33.1854 31.4303C33.2617 31.2357 33.3838 31.0888 33.5517 30.9896C33.7195 30.8865 33.9141 30.835 34.1354 30.835C34.3644 30.835 34.5666 30.8846 34.7421 30.9838C34.9176 31.083 35.055 31.2204 35.1542 31.3959C35.2534 31.5714 35.303 31.7717 35.303 31.9969V34H34.662V32.1743C34.662 32.0178 34.6314 31.8862 34.5704 31.7794C34.5132 31.6687 34.433 31.5848 34.33 31.5275C34.227 31.4665 34.1087 31.436 33.9752 31.436C33.8455 31.436 33.7272 31.4665 33.6203 31.5275C33.5173 31.5848 33.4353 31.6687 33.3742 31.7794C33.317 31.89 33.2884 32.0217 33.2884 32.1743V34H32.6417ZM37.9228 34.0687C37.7129 34.0687 37.5279 34.0324 37.3676 33.9599C37.2112 33.8836 37.0891 33.7806 37.0013 33.6509C36.9136 33.5173 36.8697 33.3609 36.8697 33.1816C36.8697 33.0137 36.9059 32.863 36.9784 32.7294C37.0547 32.5959 37.1711 32.4833 37.3275 32.3918C37.484 32.3002 37.6805 32.2353 37.917 32.1972L38.993 32.0197V32.5291L38.0429 32.6951C37.8713 32.7256 37.7453 32.7809 37.6652 32.8611C37.5851 32.9374 37.545 33.0366 37.545 33.1587C37.545 33.277 37.5889 33.3743 37.6767 33.4506C37.7682 33.5231 37.8846 33.5593 38.0258 33.5593C38.2013 33.5593 38.3539 33.5212 38.4836 33.4448C38.6172 33.3685 38.7202 33.2674 38.7927 33.1415C38.8652 33.0118 38.9014 32.8687 38.9014 32.7123V31.9167C38.9014 31.7641 38.8442 31.6401 38.7297 31.5447C38.6191 31.4455 38.4703 31.3959 38.2833 31.3959C38.1116 31.3959 37.9609 31.4417 37.8312 31.5333C37.7053 31.621 37.6118 31.7355 37.5507 31.8767L37.0128 31.6077C37.07 31.4551 37.1635 31.3215 37.2932 31.207C37.4229 31.0888 37.5736 30.9972 37.7453 30.9323C37.9209 30.8675 38.1059 30.835 38.3005 30.835C38.5447 30.835 38.7603 30.8808 38.9472 30.9724C39.138 31.064 39.2849 31.1918 39.3879 31.3558C39.4948 31.5161 39.5482 31.7031 39.5482 31.9167V34H38.9301V33.4391L39.0617 33.4563C38.9892 33.5822 38.8957 33.6909 38.7813 33.7825C38.6706 33.8741 38.5428 33.9447 38.3978 33.9943C38.2566 34.0439 38.0983 34.0687 37.9228 34.0687ZM40.3044 35.1447V30.9037H40.9225V31.5447L40.8481 31.3959C40.9625 31.2204 41.1152 31.083 41.3059 30.9838C41.4967 30.8846 41.7142 30.835 41.9584 30.835C42.2522 30.835 42.5154 30.9056 42.7482 31.0468C42.9848 31.188 43.1698 31.3806 43.3034 31.6248C43.4407 31.869 43.5094 32.1438 43.5094 32.449C43.5094 32.7542 43.4407 33.029 43.3034 33.2731C43.1698 33.5173 42.9867 33.7119 42.7539 33.8569C42.5212 33.9981 42.256 34.0687 41.9584 34.0687C41.718 34.0687 41.4986 34.0191 41.3002 33.9199C41.1056 33.8207 40.9549 33.6776 40.8481 33.4906L40.9511 33.3704V35.1447H40.3044ZM41.8954 33.4677C42.0786 33.4677 42.2407 33.4239 42.3819 33.3361C42.5231 33.2483 42.6337 33.1282 42.7139 32.9755C42.7978 32.8191 42.8398 32.6436 42.8398 32.449C42.8398 32.2544 42.7978 32.0808 42.7139 31.9282C42.6337 31.7756 42.5231 31.6554 42.3819 31.5676C42.2407 31.4799 42.0786 31.436 41.8954 31.436C41.7161 31.436 41.5539 31.4799 41.4089 31.5676C41.2678 31.6554 41.1552 31.7756 41.0713 31.9282C40.9912 32.0808 40.9511 32.2544 40.9511 32.449C40.9511 32.6436 40.9912 32.8191 41.0713 32.9755C41.1552 33.1282 41.2678 33.2483 41.4089 33.3361C41.5539 33.4239 41.7161 33.4677 41.8954 33.4677ZM44.1385 35.1447V30.9037H44.7566V31.5447L44.6822 31.3959C44.7967 31.2204 44.9493 31.083 45.1401 30.9838C45.3309 30.8846 45.5483 30.835 45.7925 30.835C46.0863 30.835 46.3496 30.9056 46.5823 31.0468C46.8189 31.188 47.004 31.3806 47.1375 31.6248C47.2749 31.869 47.3435 32.1438 47.3435 32.449C47.3435 32.7542 47.2749 33.029 47.1375 33.2731C47.004 33.5173 46.8208 33.7119 46.5881 33.8569C46.3553 33.9981 46.0901 34.0687 45.7925 34.0687C45.5522 34.0687 45.3328 34.0191 45.1344 33.9199C44.9398 33.8207 44.789 33.6776 44.6822 33.4906L44.7852 33.3704V35.1447H44.1385ZM45.7296 33.4677C45.9127 33.4677 46.0749 33.4239 46.2161 33.3361C46.3572 33.2483 46.4679 33.1282 46.548 32.9755C46.6319 32.8191 46.6739 32.6436 46.6739 32.449C46.6739 32.2544 46.6319 32.0808 46.548 31.9282C46.4679 31.7756 46.3572 31.6554 46.2161 31.5676C46.0749 31.4799 45.9127 31.436 45.7296 31.436C45.5502 31.436 45.3881 31.4799 45.2431 31.5676C45.1019 31.6554 44.9894 31.7756 44.9054 31.9282C44.8253 32.0808 44.7852 32.2544 44.7852 32.449C44.7852 32.6436 44.8253 32.8191 44.9054 32.9755C44.9894 33.1282 45.1019 33.2483 45.2431 33.3361C45.3881 33.4239 45.5502 33.4677 45.7296 33.4677ZM49.4264 34.0687C49.1173 34.0687 48.8426 33.9981 48.6022 33.8569C48.3656 33.7119 48.1806 33.5173 48.0471 33.2731C47.9135 33.0251 47.8467 32.7485 47.8467 32.4433C47.8467 32.1304 47.9135 31.8538 48.0471 31.6134C48.1844 31.373 48.3676 31.1842 48.5965 31.0468C48.8254 30.9056 49.0849 30.835 49.3748 30.835C49.6076 30.835 49.8155 30.8751 49.9987 30.9552C50.1818 31.0353 50.3364 31.146 50.4623 31.2872C50.5882 31.4245 50.6836 31.5829 50.7484 31.7622C50.8171 31.9415 50.8515 32.1323 50.8515 32.3345C50.8515 32.3841 50.8495 32.4356 50.8457 32.4891C50.8419 32.5425 50.8343 32.5921 50.8228 32.6379H48.3561V32.1228H50.4565L50.1475 32.3574C50.1856 32.1705 50.1723 32.0045 50.1074 31.8595C50.0464 31.7107 49.951 31.5943 49.8213 31.5104C49.6954 31.4226 49.5465 31.3787 49.3748 31.3787C49.2032 31.3787 49.0505 31.4226 48.917 31.5104C48.7834 31.5943 48.6804 31.7164 48.6079 31.8767C48.5354 32.0331 48.5068 32.2239 48.5221 32.449C48.503 32.6588 48.5316 32.842 48.6079 32.9984C48.6881 33.1549 48.7987 33.277 48.9399 33.3647C49.0849 33.4525 49.2489 33.4964 49.4321 33.4964C49.619 33.4964 49.7774 33.4544 49.9071 33.3704C50.0407 33.2865 50.1456 33.1778 50.2219 33.0442L50.7484 33.3018C50.6874 33.4468 50.592 33.5784 50.4623 33.6967C50.3364 33.8111 50.1837 33.9027 50.0044 33.9714C49.8289 34.0362 49.6362 34.0687 49.4264 34.0687ZM52.3818 34.0687C52.172 34.0687 51.9869 34.0324 51.8267 33.9599C51.6703 33.8836 51.5482 33.7806 51.4604 33.6509C51.3726 33.5173 51.3288 33.3609 51.3288 33.1816C51.3288 33.0137 51.365 32.863 51.4375 32.7294C51.5138 32.5959 51.6302 32.4833 51.7866 32.3918C51.9431 32.3002 52.1396 32.2353 52.3761 32.1972L53.4521 32.0197V32.5291L52.502 32.6951C52.3303 32.7256 52.2044 32.7809 52.1243 32.8611C52.0442 32.9374 52.0041 33.0366 52.0041 33.1587C52.0041 33.277 52.048 33.3743 52.1357 33.4506C52.2273 33.5231 52.3437 33.5593 52.4849 33.5593C52.6604 33.5593 52.813 33.5212 52.9427 33.4448C53.0763 33.3685 53.1793 33.2674 53.2518 33.1415C53.3243 33.0118 53.3605 32.8687 53.3605 32.7123V31.9167C53.3605 31.7641 53.3033 31.6401 53.1888 31.5447C53.0782 31.4455 52.9294 31.3959 52.7424 31.3959C52.5707 31.3959 52.42 31.4417 52.2903 31.5333C52.1644 31.621 52.0709 31.7355 52.0098 31.8767L51.4718 31.6077C51.5291 31.4551 51.6226 31.3215 51.7523 31.207C51.882 31.0888 52.0327 30.9972 52.2044 30.9323C52.3799 30.8675 52.565 30.835 52.7596 30.835C53.0038 30.835 53.2194 30.8808 53.4063 30.9724C53.5971 31.064 53.744 31.1918 53.847 31.3558C53.9538 31.5161 54.0073 31.7031 54.0073 31.9167V34H53.3891V33.4391L53.5208 33.4563C53.4483 33.5822 53.3548 33.6909 53.2403 33.7825C53.1297 33.8741 53.0019 33.9447 52.8569 33.9943C52.7157 34.0439 52.5574 34.0687 52.3818 34.0687ZM54.7634 34V30.9037H55.3816V31.5275L55.3243 31.436C55.393 31.2338 55.5037 31.0888 55.6563 31.001C55.8089 30.9094 55.992 30.8636 56.2057 30.8636H56.3946V31.4531H56.1256C55.9119 31.4531 55.7383 31.5199 55.6048 31.6535C55.475 31.7832 55.4102 31.9701 55.4102 32.2143V34H54.7634ZM57.7642 34.0687C57.5543 34.0687 57.3693 34.0324 57.209 33.9599C57.0526 33.8836 56.9305 33.7806 56.8427 33.6509C56.755 33.5173 56.7111 33.3609 56.7111 33.1816C56.7111 33.0137 56.7473 32.863 56.8198 32.7294C56.8962 32.5959 57.0125 32.4833 57.169 32.3918C57.3254 32.3002 57.5219 32.2353 57.7585 32.1972L58.8344 32.0197V32.5291L57.8844 32.6951C57.7127 32.7256 57.5868 32.7809 57.5066 32.8611C57.4265 32.9374 57.3864 33.0366 57.3864 33.1587C57.3864 33.277 57.4303 33.3743 57.5181 33.4506C57.6097 33.5231 57.726 33.5593 57.8672 33.5593C58.0427 33.5593 58.1953 33.5212 58.3251 33.4448C58.4586 33.3685 58.5616 33.2674 58.6341 33.1415C58.7066 33.0118 58.7429 32.8687 58.7429 32.7123V31.9167C58.7429 31.7641 58.6856 31.6401 58.5712 31.5447C58.4605 31.4455 58.3117 31.3959 58.1248 31.3959C57.9531 31.3959 57.8023 31.4417 57.6726 31.5333C57.5467 31.621 57.4532 31.7355 57.3922 31.8767L56.8542 31.6077C56.9114 31.4551 57.0049 31.3215 57.1346 31.207C57.2644 31.0888 57.4151 30.9972 57.5868 30.9323C57.7623 30.8675 57.9473 30.835 58.1419 30.835C58.3861 30.835 58.6017 30.8808 58.7886 30.9724C58.9794 31.064 59.1263 31.1918 59.2293 31.3558C59.3362 31.5161 59.3896 31.7031 59.3896 31.9167V34H58.7715V33.4391L58.9031 33.4563C58.8306 33.5822 58.7371 33.6909 58.6227 33.7825C58.512 33.8741 58.3842 33.9447 58.2392 33.9943C58.098 34.0439 57.9397 34.0687 57.7642 34.0687ZM60.1458 34V30.9037H60.7639V31.5104L60.6895 31.4303C60.7658 31.2357 60.8879 31.0888 61.0558 30.9896C61.2237 30.8865 61.4183 30.835 61.6396 30.835C61.8685 30.835 62.0707 30.8846 62.2462 30.9838C62.4217 31.083 62.5591 31.2204 62.6583 31.3959C62.7575 31.5714 62.8071 31.7736 62.8071 32.0026V34H62.1661V32.1743C62.1661 32.0178 62.1375 31.8862 62.0802 31.7794C62.023 31.6687 61.941 31.5848 61.8341 31.5275C61.7311 31.4665 61.6128 31.436 61.4793 31.436C61.3458 31.436 61.2256 31.4665 61.1187 31.5275C61.0157 31.5848 60.9356 31.6687 60.8784 31.7794C60.8211 31.89 60.7925 32.0217 60.7925 32.1743V34H60.1458ZM64.9701 34.0687C64.6611 34.0687 64.3864 33.9981 64.146 33.8569C63.9094 33.7119 63.7206 33.5173 63.5794 33.2731C63.442 33.029 63.3733 32.7523 63.3733 32.4433C63.3733 32.138 63.442 31.8633 63.5794 31.6191C63.7167 31.3749 63.9056 31.1842 64.146 31.0468C64.3864 30.9056 64.6611 30.835 64.9701 30.835C65.18 30.835 65.3765 30.8732 65.5596 30.9495C65.7428 31.022 65.9011 31.1231 66.0347 31.2528C66.172 31.3826 66.2731 31.5333 66.338 31.705L65.7714 31.9682C65.7065 31.808 65.6016 31.6802 65.4566 31.5848C65.3154 31.4856 65.1533 31.436 64.9701 31.436C64.7946 31.436 64.6363 31.4799 64.4951 31.5676C64.3578 31.6516 64.249 31.7717 64.1689 31.9282C64.0888 32.0808 64.0487 32.2544 64.0487 32.449C64.0487 32.6436 64.0888 32.8191 64.1689 32.9755C64.249 33.1282 64.3578 33.2483 64.4951 33.3361C64.6363 33.4239 64.7946 33.4677 64.9701 33.4677C65.1571 33.4677 65.3193 33.42 65.4566 33.3247C65.5978 33.2255 65.7027 33.0938 65.7714 32.9297L66.338 33.1987C66.277 33.3628 66.1778 33.5116 66.0404 33.6452C65.9069 33.7749 65.7485 33.8779 65.5654 33.9542C65.3822 34.0305 65.1838 34.0687 64.9701 34.0687ZM68.4238 34.0687C68.1148 34.0687 67.84 33.9981 67.5997 33.8569C67.3631 33.7119 67.1781 33.5173 67.0445 33.2731C66.911 33.0251 66.8442 32.7485 66.8442 32.4433C66.8442 32.1304 66.911 31.8538 67.0445 31.6134C67.1819 31.373 67.365 31.1842 67.5939 31.0468C67.8229 30.9056 68.0823 30.835 68.3723 30.835C68.6051 30.835 68.813 30.8751 68.9961 30.9552C69.1793 31.0353 69.3338 31.146 69.4597 31.2872C69.5856 31.4245 69.681 31.5829 69.7459 31.7622C69.8146 31.9415 69.8489 32.1323 69.8489 32.3345C69.8489 32.3841 69.847 32.4356 69.8432 32.4891C69.8394 32.5425 69.8317 32.5921 69.8203 32.6379H67.3536V32.1228H69.454L69.145 32.3574C69.1831 32.1705 69.1698 32.0045 69.1049 31.8595C69.0438 31.7107 68.9485 31.5943 68.8187 31.5104C68.6928 31.4226 68.544 31.3787 68.3723 31.3787C68.2006 31.3787 68.048 31.4226 67.9144 31.5104C67.7809 31.5943 67.6779 31.7164 67.6054 31.8767C67.5329 32.0331 67.5043 32.2239 67.5195 32.449C67.5005 32.6588 67.5291 32.842 67.6054 32.9984C67.6855 33.1549 67.7962 33.277 67.9373 33.3647C68.0823 33.4525 68.2464 33.4964 68.4295 33.4964C68.6165 33.4964 68.7748 33.4544 68.9046 33.3704C69.0381 33.2865 69.143 33.1778 69.2194 33.0442L69.7459 33.3018C69.6848 33.4468 69.5895 33.5784 69.4597 33.6967C69.3338 33.8111 69.1812 33.9027 69.0019 33.9714C68.8264 34.0362 68.6337 34.0687 68.4238 34.0687ZM71.6247 34.0687C71.3081 34.0687 71.0295 33.9905 70.7891 33.834C70.5526 33.6776 70.3866 33.4677 70.2912 33.2045L70.7891 32.9698C70.8731 33.1453 70.9875 33.2846 71.1325 33.3876C71.2813 33.4906 71.4454 33.5421 71.6247 33.5421C71.7774 33.5421 71.9014 33.5078 71.9968 33.4391C72.0921 33.3704 72.1398 33.277 72.1398 33.1587C72.1398 33.0824 72.1188 33.0213 72.0769 32.9755C72.0349 32.9259 71.9815 32.8859 71.9166 32.8553C71.8556 32.8248 71.7926 32.8019 71.7278 32.7867L71.2413 32.6493C70.9742 32.573 70.7739 32.4585 70.6403 32.3059C70.5106 32.1495 70.4457 31.9682 70.4457 31.7622C70.4457 31.5752 70.4934 31.4131 70.5888 31.2757C70.6842 31.1345 70.8158 31.0258 70.9837 30.9495C71.1516 30.8732 71.3405 30.835 71.5503 30.835C71.8327 30.835 72.0845 30.9056 72.3058 31.0468C72.5271 31.1842 72.6835 31.3768 72.7751 31.6248L72.2772 31.8595C72.2161 31.7107 72.1188 31.5924 71.9853 31.5047C71.8556 31.4169 71.7087 31.373 71.5446 31.373C71.4034 31.373 71.2909 31.4074 71.2069 31.476C71.123 31.5409 71.081 31.6267 71.081 31.7336C71.081 31.8061 71.1001 31.8671 71.1383 31.9167C71.1764 31.9625 71.226 32.0007 71.2871 32.0312C71.3481 32.0579 71.4111 32.0808 71.4759 32.0999L71.9796 32.2487C72.2352 32.3212 72.4317 32.4356 72.5691 32.5921C72.7064 32.7447 72.7751 32.9278 72.7751 33.1415C72.7751 33.3247 72.7255 33.4868 72.6263 33.628C72.5309 33.7653 72.3974 33.8741 72.2257 33.9542C72.054 34.0305 71.8537 34.0687 71.6247 34.0687Z" fill="white"/>
<path d="M13.2165 29.3766H10.8205C10.6568 29.3766 10.521 29.2408 10.521 29.0771C10.521 28.9134 10.6568 28.7776 10.8205 28.7776H13.2165C13.3802 28.7776 13.516 28.9134 13.516 29.0771C13.516 29.2408 13.3802 29.3766 13.2165 29.3766Z" fill="#EDEFF2"/>
<path d="M12.0185 30.5743H10.8205C10.6568 30.5743 10.521 30.4386 10.521 30.2748C10.521 30.1111 10.6568 29.9753 10.8205 29.9753H12.0185C12.1822 29.9753 12.318 30.1111 12.318 30.2748C12.318 30.4386 12.1822 30.5743 12.0185 30.5743Z" fill="#EDEFF2"/>
<path d="M9.8227 35.7656C7.56644 35.7656 5.72949 33.9287 5.72949 31.6724C5.72949 29.4162 7.56644 27.5792 9.8227 27.5792C9.98643 27.5792 10.1222 27.715 10.1222 27.8787C10.1222 28.0425 9.98643 28.1782 9.8227 28.1782C7.8939 28.1782 6.3285 29.7476 6.3285 31.6724C6.3285 33.5972 7.8939 35.1666 9.8227 35.1666C11.7515 35.1666 13.3169 33.5972 13.3169 31.6724C13.3169 31.5087 13.4527 31.3729 13.6164 31.3729C13.7801 31.3729 13.9159 31.5087 13.9159 31.6724C13.9159 33.9287 12.079 35.7656 9.8227 35.7656Z" fill="#EDEFF2"/>
<path d="M14.0156 36.1649C13.9398 36.1649 13.8639 36.1369 13.804 36.077L13.0053 35.2783C12.8895 35.1625 12.8895 34.9709 13.0053 34.855C13.1211 34.7392 13.3128 34.7392 13.4286 34.855L14.2273 35.6537C14.3431 35.7695 14.3431 35.9612 14.2273 36.077C14.1674 36.1369 14.0915 36.1649 14.0156 36.1649Z" fill="#EDEFF2"/>
</svg>
