<svg width="96" height="63" viewBox="0 0 96 63" fill="none" xmlns="http://www.w3.org/2000/svg">
<path d="M16.0908 53.3867C15.0034 53.8643 13.8846 52.7811 14.3097 51.6623L18.9666 39.4043C19.3092 38.5026 20.4497 38.2446 21.1398 38.9127L28.3963 45.9381C29.0864 46.6062 28.8806 47.7692 28.0043 48.1542L16.0908 53.3867Z" fill="white"/>
<path fill-rule="evenodd" clip-rule="evenodd" d="M29.3734 5.41475C26.8259 5.41475 19.633 5.86168 19.633 9.90354L20.0135 20.4155C20.0135 22.5278 20.2406 25.9406 20.1179 29.3668C19.9952 32.7929 17.4426 38.9109 11.6428 38.9109C5.84309 38.9109 0 33.9181 0 29.4807C0 25.0433 5.84309 20.0128 11.6428 20.0128C12.6215 20.0128 13.5083 20.156 14.3062 20.4155V8.80963C14.3062 1.83775 24.3219 -0.235054 29.6398 0.0206533C35.528 0.184264 44.8972 1.4596 44.8972 9.07368V14.868H39.4944V9.37545C39.4944 5.73164 31.3331 5.41475 29.3734 5.41475Z" fill="white"/>
<path fill-rule="evenodd" clip-rule="evenodd" d="M5.99636 19.8231C7.63764 17.3124 9.93402 15.245 12.7101 13.65L12.839 18.9179C12.3104 18.8046 12.0685 18.8046 11.4041 18.8046H11.4041C9.12311 18.8046 7.40534 19.2062 5.99636 19.8231ZM3.19141 29.6042C3.19141 31.8084 3.58475 33.825 4.3013 35.653C6.31475 37.2125 8.88338 38.2516 11.4041 38.2516C14.0324 38.2516 15.8905 37.1237 17.1127 35.4986C18.3534 33.8489 18.9563 31.6571 18.9563 29.5666C18.9563 29.4476 18.9572 29.3287 18.958 29.2098C18.9628 28.5108 18.9676 27.8141 18.8053 27.1121V26.8855L18.6883 11.1452C17.3279 11.5411 16.0287 12.0193 14.8026 12.5776V21.5341L13.812 21.2092C13.1004 20.9758 12.3002 20.8437 11.4041 20.8437C8.82647 20.8437 6.19758 21.9393 4.16359 23.5684C3.53027 25.4108 3.19141 27.4252 3.19141 29.6042ZM29.0956 48.8256C20.1029 48.8256 10.9068 45.6041 6.26941 39.2311C6.8427 39.5456 7.56269 39.8336 8.60976 40.1397C15.9732 42.2921 21.0332 36.1537 21.6374 29.9987C21.6863 29.5 21.6711 28.6736 21.6548 27.791V27.7909C21.6462 27.3279 21.6374 26.8494 21.6374 26.3946C21.6374 25.4637 21.4313 16.0084 21.3095 10.4993C23.767 9.99767 26.3826 9.74182 29.0956 9.74182C32.2222 9.74182 35.2194 10.0816 37.9945 10.7458L37.988 10.837L39.8006 11.3617V11.4034H39.9447L42.0664 12.0176C49.7989 15.057 54.9998 21.0676 54.9998 29.6042C54.9998 42.352 41.8434 48.8256 29.0956 48.8256ZM39.9447 11.4034L39.8006 11.3617V11.2334C39.9833 11.2886 40.1649 11.3452 40.3454 11.4034H39.9447ZM33.2966 30.4927C33.2966 33.6955 31.9565 36.2919 30.3034 36.2919C28.6504 36.2919 27.3103 33.6955 27.3103 30.4927C27.3103 27.2899 28.6504 24.6935 30.3034 24.6935C31.9565 24.6935 33.2966 27.2899 33.2966 30.4927ZM47.8891 30.4927C47.8891 33.6955 46.549 36.2919 44.896 36.2919C43.2429 36.2919 41.9028 33.6955 41.9028 30.4927C41.9028 27.2899 43.2429 24.6935 44.896 24.6935C46.549 24.6935 47.8891 27.2899 47.8891 30.4927Z" fill="white"/>
<path d="M38.2 61.12C37.6667 61.12 37.17 61.0233 36.71 60.83C36.2567 60.6367 35.86 60.3667 35.52 60.02C35.18 59.6733 34.9133 59.2667 34.72 58.8C34.5333 58.3333 34.44 57.8233 34.44 57.27C34.44 56.7167 34.5333 56.2067 34.72 55.74C34.9067 55.2667 35.17 54.86 35.51 54.52C35.85 54.1733 36.2467 53.9067 36.7 53.72C37.16 53.5267 37.66 53.43 38.2 53.43C38.74 53.43 39.2233 53.52 39.65 53.7C40.0833 53.88 40.45 54.12 40.75 54.42C41.05 54.72 41.2633 55.0533 41.39 55.42L40.02 56.08C39.8933 55.72 39.67 55.4233 39.35 55.19C39.0367 54.95 38.6533 54.83 38.2 54.83C37.76 54.83 37.3733 54.9333 37.04 55.14C36.7067 55.3467 36.4467 55.6333 36.26 56C36.08 56.36 35.99 56.7833 35.99 57.27C35.99 57.7567 36.08 58.1833 36.26 58.55C36.4467 58.9167 36.7067 59.2033 37.04 59.41C37.3733 59.6167 37.76 59.72 38.2 59.72C38.6533 59.72 39.0367 59.6033 39.35 59.37C39.67 59.13 39.8933 58.83 40.02 58.47L41.39 59.13C41.2633 59.4967 41.05 59.83 40.75 60.13C40.45 60.43 40.0833 60.67 39.65 60.85C39.2233 61.03 38.74 61.12 38.2 61.12ZM43.867 61.12C43.4736 61.12 43.1336 61.0567 42.847 60.93C42.5603 60.8033 42.3403 60.6233 42.187 60.39C42.0336 60.15 41.957 59.8667 41.957 59.54C41.957 59.2333 42.027 58.9633 42.167 58.73C42.307 58.49 42.5203 58.29 42.807 58.13C43.1003 57.97 43.4636 57.8567 43.897 57.79L45.567 57.52V58.62L44.167 58.87C43.9536 58.91 43.7903 58.98 43.677 59.08C43.5636 59.1733 43.507 59.31 43.507 59.49C43.507 59.6567 43.5703 59.7867 43.697 59.88C43.8236 59.9733 43.9803 60.02 44.167 60.02C44.4136 60.02 44.6303 59.9667 44.817 59.86C45.0036 59.7533 45.147 59.61 45.247 59.43C45.3536 59.2433 45.407 59.04 45.407 58.82V57.4C45.407 57.1933 45.3236 57.02 45.157 56.88C44.997 56.74 44.777 56.67 44.497 56.67C44.2303 56.67 43.9936 56.7433 43.787 56.89C43.587 57.0367 43.4403 57.23 43.347 57.47L42.147 56.9C42.2536 56.5933 42.4236 56.33 42.657 56.11C42.8903 55.89 43.1703 55.72 43.497 55.6C43.8236 55.48 44.1803 55.42 44.567 55.42C45.027 55.42 45.4336 55.5033 45.787 55.67C46.1403 55.8367 46.4136 56.07 46.607 56.37C46.807 56.6633 46.907 57.0067 46.907 57.4V61H45.507V60.12L45.847 60.06C45.687 60.3 45.5103 60.5 45.317 60.66C45.1236 60.8133 44.907 60.9267 44.667 61C44.427 61.08 44.1603 61.12 43.867 61.12ZM50.147 61.12C49.547 61.12 49.0237 60.98 48.577 60.7C48.137 60.4133 47.837 60.03 47.677 59.55L48.777 59.03C48.917 59.3233 49.107 59.5533 49.347 59.72C49.587 59.8867 49.8537 59.97 50.147 59.97C50.3604 59.97 50.5237 59.9267 50.637 59.84C50.7504 59.7533 50.807 59.6333 50.807 59.48C50.807 59.4 50.787 59.3333 50.747 59.28C50.707 59.22 50.647 59.1667 50.567 59.12C50.487 59.0733 50.387 59.0333 50.267 59L49.337 58.74C48.8904 58.6133 48.547 58.41 48.307 58.13C48.067 57.8433 47.947 57.5067 47.947 57.12C47.947 56.78 48.0337 56.4833 48.207 56.23C48.3804 55.9767 48.6237 55.78 48.937 55.64C49.2504 55.4933 49.6104 55.42 50.017 55.42C50.5504 55.42 51.017 55.5467 51.417 55.8C51.8237 56.0467 52.1104 56.3967 52.277 56.85L51.167 57.37C51.087 57.1433 50.9404 56.9633 50.727 56.83C50.5204 56.69 50.2837 56.62 50.017 56.62C49.8237 56.62 49.6704 56.66 49.557 56.74C49.4504 56.82 49.397 56.93 49.397 57.07C49.397 57.1433 49.417 57.21 49.457 57.27C49.497 57.33 49.5604 57.3833 49.647 57.43C49.7404 57.4767 49.8537 57.52 49.987 57.56L50.857 57.82C51.3104 57.9533 51.657 58.1567 51.897 58.43C52.137 58.6967 52.257 59.0267 52.257 59.42C52.257 59.76 52.167 60.0567 51.987 60.31C51.8137 60.5633 51.5704 60.7633 51.257 60.91C50.9437 61.05 50.5737 61.12 50.147 61.12ZM55.7835 61.06C55.1235 61.06 54.6102 60.8833 54.2435 60.53C53.8835 60.17 53.7035 59.67 53.7035 59.03V56.84H52.7835V55.54H52.8335C53.1135 55.54 53.3268 55.47 53.4735 55.33C53.6268 55.19 53.7035 54.98 53.7035 54.7V54.3H55.2035V55.54H56.4835V56.84H55.2035V58.93C55.2035 59.1167 55.2368 59.2733 55.3035 59.4C55.3702 59.52 55.4735 59.61 55.6135 59.67C55.7535 59.73 55.9268 59.76 56.1335 59.76C56.1802 59.76 56.2335 59.7567 56.2935 59.75C56.3535 59.7433 56.4168 59.7367 56.4835 59.73V61C56.3835 61.0133 56.2702 61.0267 56.1435 61.04C56.0168 61.0533 55.8968 61.06 55.7835 61.06ZM59.0525 61.12C58.6592 61.12 58.3192 61.0567 58.0325 60.93C57.7458 60.8033 57.5258 60.6233 57.3725 60.39C57.2192 60.15 57.1425 59.8667 57.1425 59.54C57.1425 59.2333 57.2125 58.9633 57.3525 58.73C57.4925 58.49 57.7058 58.29 57.9925 58.13C58.2858 57.97 58.6492 57.8567 59.0825 57.79L60.7525 57.52V58.62L59.3525 58.87C59.1392 58.91 58.9758 58.98 58.8625 59.08C58.7492 59.1733 58.6925 59.31 58.6925 59.49C58.6925 59.6567 58.7558 59.7867 58.8825 59.88C59.0092 59.9733 59.1658 60.02 59.3525 60.02C59.5992 60.02 59.8158 59.9667 60.0025 59.86C60.1892 59.7533 60.3325 59.61 60.4325 59.43C60.5392 59.2433 60.5925 59.04 60.5925 58.82V57.4C60.5925 57.1933 60.5092 57.02 60.3425 56.88C60.1825 56.74 59.9625 56.67 59.6825 56.67C59.4158 56.67 59.1792 56.7433 58.9725 56.89C58.7725 57.0367 58.6258 57.23 58.5325 57.47L57.3325 56.9C57.4392 56.5933 57.6092 56.33 57.8425 56.11C58.0758 55.89 58.3558 55.72 58.6825 55.6C59.0092 55.48 59.3658 55.42 59.7525 55.42C60.2125 55.42 60.6192 55.5033 60.9725 55.67C61.3258 55.8367 61.5992 56.07 61.7925 56.37C61.9925 56.6633 62.0925 57.0067 62.0925 57.4V61H60.6925V60.12L61.0325 60.06C60.8725 60.3 60.6958 60.5 60.5025 60.66C60.3092 60.8133 60.0925 60.9267 59.8525 61C59.6125 61.08 59.3458 61.12 59.0525 61.12ZM63.1926 61V53.43H64.6926V61H63.1926ZM65.7902 61V53.43H67.2902V58.28L66.7302 58.1L69.1402 55.54H70.9902L69.0102 57.74L70.9802 61H69.2802L67.6302 58.23L68.5002 58.01L66.8302 59.83L67.2902 58.96V61H65.7902ZM77.0965 61.12C76.5632 61.12 76.0665 61.0233 75.6065 60.83C75.1532 60.6367 74.7565 60.3667 74.4165 60.02C74.0765 59.6733 73.8098 59.2667 73.6165 58.8C73.4298 58.3333 73.3365 57.8233 73.3365 57.27C73.3365 56.7167 73.4298 56.2067 73.6165 55.74C73.8032 55.2667 74.0665 54.86 74.4065 54.52C74.7465 54.1733 75.1432 53.9067 75.5965 53.72C76.0565 53.5267 76.5565 53.43 77.0965 53.43C77.6365 53.43 78.1198 53.52 78.5465 53.7C78.9798 53.88 79.3465 54.12 79.6465 54.42C79.9465 54.72 80.1598 55.0533 80.2865 55.42L78.9165 56.08C78.7898 55.72 78.5665 55.4233 78.2465 55.19C77.9332 54.95 77.5498 54.83 77.0965 54.83C76.6565 54.83 76.2698 54.9333 75.9365 55.14C75.6032 55.3467 75.3432 55.6333 75.1565 56C74.9765 56.36 74.8865 56.7833 74.8865 57.27C74.8865 57.7567 74.9765 58.1833 75.1565 58.55C75.3432 58.9167 75.6032 59.2033 75.9365 59.41C76.2698 59.6167 76.6565 59.72 77.0965 59.72C77.5498 59.72 77.9332 59.6033 78.2465 59.37C78.5665 59.13 78.7898 58.83 78.9165 58.47L80.2865 59.13C80.1598 59.4967 79.9465 59.83 79.6465 60.13C79.3465 60.43 78.9798 60.67 78.5465 60.85C78.1198 61.03 77.6365 61.12 77.0965 61.12ZM81.1711 61V53.43H82.6711V61H81.1711ZM85.7288 61.12C85.2888 61.12 84.9121 61.0267 84.5988 60.84C84.2921 60.6467 84.0588 60.38 83.8988 60.04C83.7388 59.7 83.6588 59.3033 83.6588 58.85V55.54H85.1588V58.73C85.1588 58.9367 85.1988 59.12 85.2788 59.28C85.3654 59.4333 85.4854 59.5533 85.6388 59.64C85.7921 59.7267 85.9654 59.77 86.1587 59.77C86.3588 59.77 86.5321 59.7267 86.6788 59.64C86.8321 59.5533 86.9488 59.4333 87.0288 59.28C87.1154 59.12 87.1588 58.9367 87.1588 58.73V55.54H88.6588V61H87.2588V59.92L87.3388 60.16C87.2121 60.4867 87.0054 60.73 86.7188 60.89C86.4388 61.0433 86.1088 61.12 85.7288 61.12ZM92.8151 61.12C92.4417 61.12 92.0951 61.0533 91.7751 60.92C91.4617 60.78 91.2084 60.5767 91.0151 60.31L91.1551 60V61H89.7551V53.43H91.2551V56.58L91.0251 56.28C91.2051 56.0067 91.4484 55.7967 91.7551 55.65C92.0684 55.4967 92.4251 55.42 92.8251 55.42C93.3451 55.42 93.8151 55.5467 94.2351 55.8C94.6551 56.0533 94.9884 56.3967 95.2351 56.83C95.4817 57.2567 95.6051 57.7367 95.6051 58.27C95.6051 58.7967 95.4817 59.2767 95.2351 59.71C94.9951 60.1433 94.6651 60.4867 94.2451 60.74C93.8251 60.9933 93.3484 61.12 92.8151 61.12ZM92.6351 59.77C92.9151 59.77 93.1617 59.7067 93.3751 59.58C93.5884 59.4533 93.7551 59.2767 93.8751 59.05C93.9951 58.8233 94.0551 58.5633 94.0551 58.27C94.0551 57.9767 93.9951 57.72 93.8751 57.5C93.7551 57.2733 93.5884 57.0967 93.3751 56.97C93.1617 56.8367 92.9151 56.77 92.6351 56.77C92.3684 56.77 92.1284 56.8333 91.9151 56.96C91.7084 57.0867 91.5451 57.2633 91.4251 57.49C91.3117 57.7167 91.2551 57.9767 91.2551 58.27C91.2551 58.5633 91.3117 58.8233 91.4251 59.05C91.5451 59.2767 91.7084 59.4533 91.9151 59.58C92.1284 59.7067 92.3684 59.77 92.6351 59.77Z" fill="white"/>
</svg>
